<?xml version="1.0" encoding="UTF-8" standalone="no"?>
<!DOCTYPE svg PUBLIC "-//W3C//DTD SVG 1.1//EN"
 "http://www.w3.org/Graphics/SVG/1.1/DTD/svg11.dtd">
<!-- Generated by graphviz version 2.43.0 (0)
 -->
<!-- Title: %3 Pages: 1 -->
<svg width="171pt" height="131pt"
 viewBox="0.00 0.00 170.50 131.00" xmlns="http://www.w3.org/2000/svg" xmlns:xlink="http://www.w3.org/1999/xlink">
<g id="graph0" class="graph" transform="scale(1 1) rotate(0) translate(4 127)">
<title>%3</title>
<polygon fill="white" stroke="transparent" points="-4,4 -4,-127 166.5,-127 166.5,4 -4,4"/>
<!-- a -->
<g id="node1" class="node">
<title>a</title>
<text text-anchor="middle" x="36" y="-101.3" font-family="Times-Roman" font-size="14.00">a</text>
</g>
<!-- WaTR -->
<g id="node2" class="node">
<title>WaTR</title>
<text text-anchor="middle" x="27" y="-14.3" font-family="Times-Roman" font-size="14.00">W a</text>
</g>
<!-- a&#45;&gt;WaTR -->
<g id="edge1" class="edge">
<title>a&#45;&gt;WaTR</title>
<path fill="none" stroke="black" d="M34.18,-86.8C32.95,-75.16 31.29,-59.55 29.88,-46.24"/>
<polygon fill="black" stroke="black" points="33.35,-45.75 28.82,-36.18 26.39,-46.49 33.35,-45.75"/>
<text text-anchor="middle" x="36" y="-57.8" font-family="Times-Roman" font-size="14.00">f</text>
</g>
<!-- WaBL -->
<g id="node3" class="node">
<title>WaBL</title>
<text text-anchor="middle" x="127" y="-101.3" font-family="Times-Roman" font-size="14.00">W a</text>
</g>
<!-- a&#45;&gt;WaBL -->
<g id="edge2" class="edge">
<title>a&#45;&gt;WaBL</title>
<path fill="none" stroke="black" d="M63.3,-105C71.58,-105 80.82,-105 89.64,-105"/>
<polygon fill="black" stroke="black" points="89.72,-108.5 99.72,-105 89.72,-101.5 89.72,-108.5"/>
<text text-anchor="middle" x="81.5" y="-111.8" font-family="Times-Roman" font-size="14.00">f</text>
</g>
<!-- WWa -->
<g id="node4" class="node">
<title>WWa</title>
<text text-anchor="middle" x="129" y="-14.3" font-family="Times-Roman" font-size="14.00">W(W a)</text>
</g>
<!-- WaTR&#45;&gt;WWa -->
<g id="edge3" class="edge">
<title>WaTR&#45;&gt;WWa</title>
<path fill="none" stroke="black" d="M54.07,-18C63.54,-18 74.44,-18 84.93,-18"/>
<polygon fill="black" stroke="black" points="85.23,-21.5 95.23,-18 85.23,-14.5 85.23,-21.5"/>
<text text-anchor="middle" x="74.75" y="-24.8" font-family="Times-Roman" font-size="14.00">W f</text>
</g>
<!-- WaBL&#45;&gt;WWa -->
<g id="edge4" class="edge">
<title>WaBL&#45;&gt;WWa</title>
<path fill="none" stroke="black" d="M127.4,-86.8C127.68,-75.16 128.05,-59.55 128.36,-46.24"/>
<polygon fill="black" stroke="black" points="131.86,-46.26 128.6,-36.18 124.86,-46.09 131.86,-46.26"/>
<text text-anchor="middle" x="140" y="-57.8" font-family="Times-Roman" font-size="14.00">δ_a</text>
</g>
</g>
</svg>
