<?xml version="1.0" encoding="UTF-8" standalone="no"?>
<!DOCTYPE svg PUBLIC "-//W3C//DTD SVG 1.1//EN"
 "http://www.w3.org/Graphics/SVG/1.1/DTD/svg11.dtd">
<!-- Generated by graphviz version 2.43.0 (0)
 -->
<!-- Title: %3 Pages: 1 -->
<svg width="161pt" height="131pt"
 viewBox="0.00 0.00 161.00 131.00" xmlns="http://www.w3.org/2000/svg" xmlns:xlink="http://www.w3.org/1999/xlink">
<g id="graph0" class="graph" transform="scale(1 1) rotate(0) translate(4 127)">
<title>%3</title>
<polygon fill="white" stroke="transparent" points="-4,4 -4,-127 157,-127 157,4 -4,4"/>
<!-- a -->
<g id="node1" class="node">
<title>a</title>
<text text-anchor="middle" x="30" y="-101.3" font-family="Times-Roman" font-size="14.00">a</text>
</g>
<!-- WaTR -->
<g id="node2" class="node">
<title>WaTR</title>
<text text-anchor="middle" x="27" y="-14.3" font-family="Times-Roman" font-size="14.00">Wa</text>
</g>
<!-- a&#45;&gt;WaTR -->
<g id="edge1" class="edge">
<title>a&#45;&gt;WaTR</title>
<path fill="none" stroke="black" d="M29.39,-86.8C28.98,-75.16 28.43,-59.55 27.96,-46.24"/>
<polygon fill="black" stroke="black" points="31.46,-46.05 27.61,-36.18 24.46,-46.29 31.46,-46.05"/>
<text text-anchor="middle" x="32" y="-57.8" font-family="Times-Roman" font-size="14.00">f</text>
</g>
<!-- WaBL -->
<g id="node3" class="node">
<title>WaBL</title>
<text text-anchor="middle" x="121" y="-101.3" font-family="Times-Roman" font-size="14.00">Wa</text>
</g>
<!-- a&#45;&gt;WaBL -->
<g id="edge2" class="edge">
<title>a&#45;&gt;WaBL</title>
<path fill="none" stroke="black" d="M57.3,-105C65.58,-105 74.82,-105 83.64,-105"/>
<polygon fill="black" stroke="black" points="83.72,-108.5 93.72,-105 83.72,-101.5 83.72,-108.5"/>
<text text-anchor="middle" x="75.5" y="-111.8" font-family="Times-Roman" font-size="14.00">f</text>
</g>
<!-- WWa -->
<g id="node4" class="node">
<title>WWa</title>
<text text-anchor="middle" x="122" y="-14.3" font-family="Times-Roman" font-size="14.00">W(Wa)</text>
</g>
<!-- WaTR&#45;&gt;WWa -->
<g id="edge3" class="edge">
<title>WaTR&#45;&gt;WWa</title>
<path fill="none" stroke="black" d="M54.22,-18C62.42,-18 71.61,-18 80.51,-18"/>
<polygon fill="black" stroke="black" points="80.75,-21.5 90.75,-18 80.75,-14.5 80.75,-21.5"/>
<text text-anchor="middle" x="72.5" y="-24.8" font-family="Times-Roman" font-size="14.00">Wf</text>
</g>
<!-- WaBL&#45;&gt;WWa -->
<g id="edge4" class="edge">
<title>WaBL&#45;&gt;WWa</title>
<path fill="none" stroke="black" d="M121.2,-86.8C121.34,-75.16 121.52,-59.55 121.68,-46.24"/>
<polygon fill="black" stroke="black" points="125.18,-46.22 121.8,-36.18 118.18,-46.13 125.18,-46.22"/>
<text text-anchor="middle" x="129.5" y="-57.8" font-family="Times-Roman" font-size="14.00">δa</text>
</g>
</g>
</svg>
