<?xml version="1.0" encoding="UTF-8" standalone="no"?>
<!DOCTYPE svg PUBLIC "-//W3C//DTD SVG 1.1//EN"
 "http://www.w3.org/Graphics/SVG/1.1/DTD/svg11.dtd">
<!-- Generated by graphviz version 2.43.0 (0)
 -->
<!-- Title: %3 Pages: 1 -->
<svg width="647pt" height="273pt"
 viewBox="0.00 0.00 647.46 273.00" xmlns="http://www.w3.org/2000/svg" xmlns:xlink="http://www.w3.org/1999/xlink">
<g id="graph0" class="graph" transform="scale(1 1) rotate(0) translate(4 269)">
<title>%3</title>
<polygon fill="white" stroke="transparent" points="-4,4 -4,-269 643.46,-269 643.46,4 -4,4"/>
<g id="clust1" class="cluster">
<title>clusterCxC</title>
<polygon fill="none" stroke="black" points="91.84,-8 91.84,-155 194.93,-155 194.93,-8 91.84,-8"/>
<text text-anchor="middle" x="143.39" y="-139.8" font-family="Times-Roman" font-size="14.00">CxC</text>
</g>
<g id="clust3" class="cluster">
<title>clusterC</title>
<polygon fill="none" stroke="black" points="464.02,-8 464.02,-155 589.21,-155 589.21,-8 464.02,-8"/>
<text text-anchor="middle" x="526.62" y="-139.8" font-family="Times-Roman" font-size="14.00">C</text>
</g>
<g id="clust5" class="cluster">
<title>clusterCxCHomset</title>
<polygon fill="none" stroke="black" points="8,-182 8,-257 278.78,-257 278.78,-182 8,-182"/>
<text text-anchor="middle" x="143.39" y="-241.8" font-family="Times-Roman" font-size="14.00">(CxC)(&lt;a, b&gt;, Δc)</text>
</g>
<g id="clust6" class="cluster">
<title>clusterCHomset</title>
<polygon fill="none" stroke="black" points="421.78,-163 421.78,-238 631.46,-238 631.46,-163 421.78,-163"/>
<text text-anchor="middle" x="526.62" y="-222.8" font-family="Times-Roman" font-size="14.00">C(Either a b, c)</text>
</g>
<!-- ab -->
<g id="node1" class="node">
<title>ab</title>
<ellipse fill="lightgray" stroke="black" cx="143.39" cy="-34" rx="43.59" ry="18"/>
<text text-anchor="middle" x="143.39" y="-30.3" font-family="Times-Roman" font-size="14.00">&lt;a, b&gt;</text>
</g>
<!-- cc -->
<g id="node2" class="node">
<title>cc</title>
<ellipse fill="lightgray" stroke="black" cx="143.39" cy="-106" rx="42.49" ry="18"/>
<text text-anchor="middle" x="143.39" y="-102.3" font-family="Times-Roman" font-size="14.00">&lt;c, c&gt;</text>
</g>
<!-- ab&#45;&gt;cc -->
<g id="edge1" class="edge">
<title>ab&#45;&gt;cc</title>
<path fill="none" stroke="black" d="M143.39,-52.17C143.39,-59.87 143.39,-69.03 143.39,-77.58"/>
<polygon fill="black" stroke="black" points="139.89,-77.59 143.39,-87.59 146.89,-77.59 139.89,-77.59"/>
<text text-anchor="middle" x="132.89" y="-66.3" font-family="Times-Roman" font-size="14.00">&lt;i, j&gt;</text>
</g>
<!-- eitherab -->
<g id="node3" class="node">
<title>eitherab</title>
<ellipse fill="lightgray" stroke="black" cx="526.62" cy="-34" rx="54.69" ry="18"/>
<text text-anchor="middle" x="526.62" y="-30.3" font-family="Times-Roman" font-size="14.00">Either a b</text>
</g>
<!-- ab&#45;&gt;eitherab -->
<g id="edge3" class="edge">
<title>ab&#45;&gt;eitherab</title>
<path fill="none" stroke="red" stroke-width="4" d="M187.01,-34C253.86,-34 383.77,-34 461.8,-34"/>
<polygon fill="red" stroke="red" stroke-width="4" points="461.98,-37.5 471.98,-34 461.98,-30.5 461.98,-37.5"/>
<text text-anchor="middle" x="350.28" y="-37.8" font-family="Times-Roman" font-size="14.00">Coproduct</text>
</g>
<!-- c -->
<g id="node4" class="node">
<title>c</title>
<ellipse fill="lightgray" stroke="black" cx="526.62" cy="-106" rx="27" ry="18"/>
<text text-anchor="middle" x="526.62" y="-102.3" font-family="Times-Roman" font-size="14.00">c</text>
</g>
<!-- eitherab&#45;&gt;c -->
<g id="edge2" class="edge">
<title>eitherab&#45;&gt;c</title>
<path fill="none" stroke="black" d="M526.62,-52.17C526.62,-59.87 526.62,-69.03 526.62,-77.58"/>
<polygon fill="black" stroke="black" points="523.12,-77.59 526.62,-87.59 530.12,-77.59 523.12,-77.59"/>
<text text-anchor="middle" x="516.12" y="-66.3" font-family="Times-Roman" font-size="14.00">m</text>
</g>
<!-- c&#45;&gt;cc -->
<g id="edge4" class="edge">
<title>c&#45;&gt;cc</title>
<path fill="none" stroke="blue" stroke-width="4" d="M499.49,-106C437.11,-106 278.58,-106 196.07,-106"/>
<polygon fill="blue" stroke="blue" stroke-width="4" points="195.91,-102.5 185.91,-106 195.91,-109.5 195.91,-102.5"/>
<text text-anchor="middle" x="350.28" y="-109.8" font-family="Times-Roman" font-size="14.00">Δ</text>
</g>
<!-- ij -->
<g id="node5" class="node">
<title>ij</title>
<ellipse fill="lightgray" stroke="black" cx="143.39" cy="-208" rx="127.28" ry="18"/>
<text text-anchor="middle" x="143.39" y="-204.3" font-family="Times-Roman" font-size="14.00">&lt;i, j&gt; = &lt;a &#45;&gt; c, b &#45;&gt; c&gt;</text>
</g>
<!-- m -->
<g id="node6" class="node">
<title>m</title>
<ellipse fill="lightgray" stroke="black" cx="526.62" cy="-189" rx="96.68" ry="18"/>
<text text-anchor="middle" x="526.62" y="-185.3" font-family="Times-Roman" font-size="14.00">m :: Either a b &#45;&gt; c</text>
</g>
<!-- ij&#45;&gt;m -->
<g id="edge5" class="edge">
<title>ij&#45;&gt;m</title>
<path fill="none" stroke="black" stroke-width="4" d="M263.71,-202.05C314.79,-199.51 373.86,-196.56 422.95,-194.12"/>
<polygon fill="black" stroke="black" stroke-width="4" points="423.14,-197.61 432.95,-193.62 422.79,-190.62 423.14,-197.61"/>
<text text-anchor="middle" x="350.28" y="-203.8" font-family="Times-Roman" font-size="14.00">Factorizer</text>
</g>
<!-- m&#45;&gt;ij -->
<g id="edge6" class="edge">
<title>m&#45;&gt;ij</title>
<path fill="none" stroke="black" stroke-width="4" d="M448.58,-178.23C436.29,-176.89 423.7,-175.73 411.78,-175 357.21,-171.66 343.1,-168.87 288.78,-175 263.06,-177.9 235.25,-183.62 210.97,-189.49"/>
<polygon fill="black" stroke="black" stroke-width="4" points="210.01,-186.13 201.15,-191.92 211.69,-192.92 210.01,-186.13"/>
<text text-anchor="middle" x="350.28" y="-178.8" font-family="Times-Roman" font-size="14.00">Inverse factorizer</text>
</g>
</g>
</svg>
