<?xml version="1.0" encoding="UTF-8" standalone="no"?>
<!DOCTYPE svg PUBLIC "-//W3C//DTD SVG 1.1//EN"
 "http://www.w3.org/Graphics/SVG/1.1/DTD/svg11.dtd">
<!-- Generated by graphviz version 2.43.0 (0)
 -->
<!-- Title: %3 Pages: 1 -->
<svg width="153pt" height="182pt"
 viewBox="0.00 0.00 153.00 182.00" xmlns="http://www.w3.org/2000/svg" xmlns:xlink="http://www.w3.org/1999/xlink">
<g id="graph0" class="graph" transform="scale(1 1) rotate(0) translate(4 178)">
<title>%3</title>
<polygon fill="white" stroke="transparent" points="-4,4 -4,-178 149,-178 149,4 -4,4"/>
<!-- a -->
<g id="node1" class="node">
<title>a</title>
<ellipse fill="lightgray" stroke="black" cx="27" cy="-70" rx="27" ry="18"/>
<text text-anchor="middle" x="27" y="-66.3" font-family="Times-Roman" font-size="14.00">a</text>
</g>
<!-- a&#45;&gt;a -->
<g id="edge1" class="edge">
<title>a&#45;&gt;a</title>
<path fill="none" stroke="black" d="M19.14,-87.41C17.68,-97.09 20.3,-106 27,-106 31.19,-106 33.78,-102.52 34.78,-97.54"/>
<polygon fill="black" stroke="black" points="38.28,-97.44 34.86,-87.41 31.28,-97.38 38.28,-97.44"/>
<text text-anchor="middle" x="27" y="-109.8" font-family="Times-Roman" font-size="14.00">f = id</text>
</g>
<!-- Fa -->
<g id="node2" class="node">
<title>Fa</title>
<ellipse fill="lightgray" stroke="black" cx="118" cy="-123" rx="27" ry="18"/>
<text text-anchor="middle" x="118" y="-119.3" font-family="Times-Roman" font-size="14.00">Fa</text>
</g>
<!-- a&#45;&gt;Fa -->
<g id="edge2" class="edge">
<title>a&#45;&gt;Fa</title>
<path fill="none" stroke="black" d="M47.75,-81.76C59.74,-88.9 75.23,-98.13 88.52,-106.04"/>
<polygon fill="black" stroke="black" points="86.92,-109.16 97.3,-111.27 90.5,-103.15 86.92,-109.16"/>
</g>
<!-- Ga -->
<g id="node3" class="node">
<title>Ga</title>
<ellipse fill="lightgray" stroke="black" cx="118" cy="-18" rx="27" ry="18"/>
<text text-anchor="middle" x="118" y="-14.3" font-family="Times-Roman" font-size="14.00">Ga</text>
</g>
<!-- a&#45;&gt;Ga -->
<g id="edge3" class="edge">
<title>a&#45;&gt;Ga</title>
<path fill="none" stroke="black" d="M47.75,-58.46C59.65,-51.51 75.01,-42.53 88.25,-34.8"/>
<polygon fill="black" stroke="black" points="90.13,-37.75 97,-29.69 86.6,-31.71 90.13,-37.75"/>
</g>
<!-- Fa&#45;&gt;Fa -->
<g id="edge4" class="edge">
<title>Fa&#45;&gt;Fa</title>
<path fill="none" stroke="red" d="M110.14,-140.41C108.68,-150.09 111.3,-159 118,-159 122.19,-159 124.78,-155.52 125.78,-150.54"/>
<polygon fill="red" stroke="red" points="129.28,-150.44 125.86,-140.41 122.28,-150.38 129.28,-150.44"/>
<text text-anchor="middle" x="118" y="-162.8" font-family="Times-Roman" font-size="14.00">Ff = id</text>
</g>
<!-- Fa&#45;&gt;Ga -->
<g id="edge6" class="edge">
<title>Fa&#45;&gt;Ga</title>
<path fill="none" stroke="orange" d="M118,-104.92C118,-88.8 118,-64.94 118,-46.3"/>
<polygon fill="orange" stroke="orange" points="121.5,-46.29 118,-36.29 114.5,-46.29 121.5,-46.29"/>
<text text-anchor="middle" x="107.5" y="-66.8" font-family="Times-Roman" font-size="14.00">αa = Gf ∘ αa = αa ∘ Ff</text>
</g>
<!-- Ga&#45;&gt;Ga -->
<g id="edge5" class="edge">
<title>Ga&#45;&gt;Ga</title>
<path fill="none" stroke="yellow" d="M110.14,-35.41C108.68,-45.09 111.3,-54 118,-54 122.19,-54 124.78,-50.52 125.78,-45.54"/>
<polygon fill="yellow" stroke="yellow" points="129.28,-45.44 125.86,-35.41 122.28,-45.38 129.28,-45.44"/>
<text text-anchor="middle" x="118" y="-57.8" font-family="Times-Roman" font-size="14.00">Gf = id</text>
</g>
</g>
</svg>
