<?xml version="1.0" encoding="UTF-8" standalone="no"?>
<!DOCTYPE svg PUBLIC "-//W3C//DTD SVG 1.1//EN"
 "http://www.w3.org/Graphics/SVG/1.1/DTD/svg11.dtd">
<!-- Generated by graphviz version 2.43.0 (0)
 -->
<!-- Title: %3 Pages: 1 -->
<svg width="322pt" height="131pt"
 viewBox="0.00 0.00 322.00 131.00" xmlns="http://www.w3.org/2000/svg" xmlns:xlink="http://www.w3.org/1999/xlink">
<g id="graph0" class="graph" transform="scale(1 1) rotate(0) translate(4 127)">
<title>%3</title>
<polygon fill="white" stroke="transparent" points="-4,4 -4,-127 318,-127 318,4 -4,4"/>
<!-- WaL1 -->
<g id="node1" class="node">
<title>WaL1</title>
<text text-anchor="middle" x="27" y="-101.3" font-family="Times-Roman" font-size="14.00">Wa</text>
</g>
<!-- WaR1 -->
<g id="node2" class="node">
<title>WaR1</title>
<text text-anchor="middle" x="67" y="-14.3" font-family="Times-Roman" font-size="14.00">Wa</text>
</g>
<!-- WaL1&#45;&gt;WaR1 -->
<g id="edge3" class="edge">
<title>WaL1&#45;&gt;WaR1</title>
<path fill="none" stroke="black" stroke-dasharray="5,2" d="M35.09,-86.8C42.03,-72.05 51.98,-50.92 58.92,-36.18"/>
</g>
<!-- WWa1 -->
<g id="node3" class="node">
<title>WWa1</title>
<text text-anchor="middle" x="121" y="-101.3" font-family="Times-Roman" font-size="14.00">W(Wa)</text>
</g>
<!-- WaL1&#45;&gt;WWa1 -->
<g id="edge1" class="edge">
<title>WaL1&#45;&gt;WWa1</title>
<path fill="none" stroke="black" d="M54.19,-105C62.22,-105 71.19,-105 79.89,-105"/>
<polygon fill="black" stroke="black" points="79.9,-108.5 89.9,-105 79.9,-101.5 79.9,-108.5"/>
<text text-anchor="middle" x="72" y="-111.8" font-family="Times-Roman" font-size="14.00">δa</text>
</g>
<!-- WWa1&#45;&gt;WaR1 -->
<g id="edge2" class="edge">
<title>WWa1&#45;&gt;WaR1</title>
<path fill="none" stroke="black" d="M110.07,-86.8C102.39,-74.7 91.97,-58.3 83.31,-44.67"/>
<polygon fill="black" stroke="black" points="86.23,-42.74 77.91,-36.18 80.32,-46.49 86.23,-42.74"/>
<text text-anchor="middle" x="113" y="-57.8" font-family="Times-Roman" font-size="14.00">Wεa</text>
</g>
<!-- aL2 -->
<g id="node4" class="node">
<title>aL2</title>
<text text-anchor="middle" x="197" y="-101.3" font-family="Times-Roman" font-size="14.00">a</text>
</g>
<!-- aR2 -->
<g id="node5" class="node">
<title>aR2</title>
<text text-anchor="middle" x="241" y="-14.3" font-family="Times-Roman" font-size="14.00">a</text>
</g>
<!-- aL2&#45;&gt;aR2 -->
<g id="edge6" class="edge">
<title>aL2&#45;&gt;aR2</title>
<path fill="none" stroke="black" stroke-dasharray="5,2" d="M205.9,-86.8C213.54,-72.05 224.48,-50.92 232.11,-36.18"/>
</g>
<!-- Wa2 -->
<g id="node6" class="node">
<title>Wa2</title>
<text text-anchor="middle" x="287" y="-101.3" font-family="Times-Roman" font-size="14.00">Wa</text>
</g>
<!-- aL2&#45;&gt;Wa2 -->
<g id="edge4" class="edge">
<title>aL2&#45;&gt;Wa2</title>
<path fill="none" stroke="black" d="M224,-105C232.03,-105 240.97,-105 249.53,-105"/>
<polygon fill="black" stroke="black" points="249.71,-108.5 259.71,-105 249.7,-101.5 249.71,-108.5"/>
<text text-anchor="middle" x="242" y="-111.8" font-family="Times-Roman" font-size="14.00">f</text>
</g>
<!-- Wa2&#45;&gt;aR2 -->
<g id="edge5" class="edge">
<title>Wa2&#45;&gt;aR2</title>
<path fill="none" stroke="black" d="M277.69,-86.8C271.21,-74.82 262.44,-58.62 255.1,-45.06"/>
<polygon fill="black" stroke="black" points="258.13,-43.3 250.29,-36.18 251.98,-46.64 258.13,-43.3"/>
<text text-anchor="middle" x="274" y="-57.8" font-family="Times-Roman" font-size="14.00">εa</text>
</g>
</g>
</svg>
