<?xml version="1.0" encoding="UTF-8" standalone="no"?>
<!DOCTYPE svg PUBLIC "-//W3C//DTD SVG 1.1//EN"
 "http://www.w3.org/Graphics/SVG/1.1/DTD/svg11.dtd">
<!-- Generated by graphviz version 2.43.0 (0)
 -->
<!-- Title: %3 Pages: 1 -->
<svg width="321pt" height="131pt"
 viewBox="0.00 0.00 321.00 131.00" xmlns="http://www.w3.org/2000/svg" xmlns:xlink="http://www.w3.org/1999/xlink">
<g id="graph0" class="graph" transform="scale(1 1) rotate(0) translate(4 127)">
<title>%3</title>
<polygon fill="white" stroke="transparent" points="-4,4 -4,-127 317,-127 317,4 -4,4"/>
<!-- TaL1 -->
<g id="node1" class="node">
<title>TaL1</title>
<text text-anchor="middle" x="27" y="-101.3" font-family="Times-Roman" font-size="14.00">Ta</text>
</g>
<!-- TaR1 -->
<g id="node2" class="node">
<title>TaR1</title>
<text text-anchor="middle" x="76" y="-14.3" font-family="Times-Roman" font-size="14.00">Ta</text>
</g>
<!-- TaL1&#45;&gt;TaR1 -->
<g id="edge3" class="edge">
<title>TaL1&#45;&gt;TaR1</title>
<path fill="none" stroke="black" stroke-dasharray="5,2" d="M36.92,-86.8C45.42,-72.05 57.6,-50.92 66.1,-36.18"/>
</g>
<!-- aR1 -->
<g id="node3" class="node">
<title>aR1</title>
<text text-anchor="middle" x="124" y="-101.3" font-family="Times-Roman" font-size="14.00">a</text>
</g>
<!-- TaL1&#45;&gt;aR1 -->
<g id="edge1" class="edge">
<title>TaL1&#45;&gt;aR1</title>
<path fill="none" stroke="black" d="M54.02,-105C64.13,-105 75.8,-105 86.68,-105"/>
<polygon fill="black" stroke="black" points="86.79,-108.5 96.79,-105 86.79,-101.5 86.79,-108.5"/>
<text text-anchor="middle" x="75.5" y="-111.8" font-family="Times-Roman" font-size="14.00">Tεa</text>
</g>
<!-- aR1&#45;&gt;TaR1 -->
<g id="edge2" class="edge">
<title>aR1&#45;&gt;TaR1</title>
<path fill="none" stroke="black" d="M114.29,-86.8C107.52,-74.82 98.37,-58.62 90.71,-45.06"/>
<polygon fill="black" stroke="black" points="93.66,-43.16 85.7,-36.18 87.57,-46.6 93.66,-43.16"/>
<text text-anchor="middle" x="106" y="-57.8" font-family="Times-Roman" font-size="14.00">f</text>
</g>
<!-- aL2 -->
<g id="node4" class="node">
<title>aL2</title>
<text text-anchor="middle" x="196" y="-101.3" font-family="Times-Roman" font-size="14.00">a</text>
</g>
<!-- aR2 -->
<g id="node5" class="node">
<title>aR2</title>
<text text-anchor="middle" x="226" y="-14.3" font-family="Times-Roman" font-size="14.00">a</text>
</g>
<!-- aL2&#45;&gt;aR2 -->
<g id="edge6" class="edge">
<title>aL2&#45;&gt;aR2</title>
<path fill="none" stroke="black" stroke-dasharray="5,2" d="M202.07,-86.8C207.28,-72.05 214.74,-50.92 219.94,-36.18"/>
</g>
<!-- TaR2 -->
<g id="node6" class="node">
<title>TaR2</title>
<text text-anchor="middle" x="286" y="-101.3" font-family="Times-Roman" font-size="14.00">Ta</text>
</g>
<!-- aL2&#45;&gt;TaR2 -->
<g id="edge4" class="edge">
<title>aL2&#45;&gt;TaR2</title>
<path fill="none" stroke="black" d="M223,-105C231.03,-105 239.97,-105 248.53,-105"/>
<polygon fill="black" stroke="black" points="248.71,-108.5 258.71,-105 248.7,-101.5 248.71,-108.5"/>
<text text-anchor="middle" x="241" y="-111.8" font-family="Times-Roman" font-size="14.00">δa</text>
</g>
<!-- TaR2&#45;&gt;aR2 -->
<g id="edge5" class="edge">
<title>TaR2&#45;&gt;aR2</title>
<path fill="none" stroke="black" d="M273.86,-86.8C265.32,-74.7 253.74,-58.3 244.12,-44.67"/>
<polygon fill="black" stroke="black" points="246.75,-42.33 238.12,-36.18 241.03,-46.36 246.75,-42.33"/>
<text text-anchor="middle" x="271.5" y="-57.8" font-family="Times-Roman" font-size="14.00">Tεa</text>
</g>
</g>
</svg>
