<?xml version="1.0" encoding="UTF-8" standalone="no"?>
<!DOCTYPE svg PUBLIC "-//W3C//DTD SVG 1.1//EN"
 "http://www.w3.org/Graphics/SVG/1.1/DTD/svg11.dtd">
<!-- Generated by graphviz version 2.43.0 (0)
 -->
<!-- Title: %3 Pages: 1 -->
<svg width="359pt" height="131pt"
 viewBox="0.00 0.00 358.50 131.00" xmlns="http://www.w3.org/2000/svg" xmlns:xlink="http://www.w3.org/1999/xlink">
<g id="graph0" class="graph" transform="scale(1 1) rotate(0) translate(4 127)">
<title>%3</title>
<polygon fill="white" stroke="transparent" points="-4,4 -4,-127 354.5,-127 354.5,4 -4,4"/>
<!-- aL2 -->
<g id="node1" class="node">
<title>aL2</title>
<text text-anchor="middle" x="39.5" y="-101.3" font-family="Times-Roman" font-size="14.00">a</text>
</g>
<!-- aR2 -->
<g id="node2" class="node">
<title>aR2</title>
<text text-anchor="middle" x="126.5" y="-14.3" font-family="Times-Roman" font-size="14.00">a</text>
</g>
<!-- aL2&#45;&gt;aR2 -->
<g id="edge3" class="edge">
<title>aL2&#45;&gt;aR2</title>
<path fill="none" stroke="black" d="M56.41,-86.08C71.5,-71.34 93.14,-50.2 108.22,-35.46"/>
<path fill="none" stroke="black" d="M57.8,-87.51C72.9,-72.77 94.53,-51.63 109.62,-36.89"/>
</g>
<!-- Wa2 -->
<g id="node3" class="node">
<title>Wa2</title>
<text text-anchor="middle" x="129.5" y="-101.3" font-family="Times-Roman" font-size="14.00">W a</text>
</g>
<!-- aL2&#45;&gt;Wa2 -->
<g id="edge1" class="edge">
<title>aL2&#45;&gt;Wa2</title>
<path fill="none" stroke="black" d="M66.5,-105C74.53,-105 83.47,-105 92.03,-105"/>
<polygon fill="black" stroke="black" points="92.21,-108.5 102.21,-105 92.2,-101.5 92.21,-108.5"/>
<text text-anchor="middle" x="84.5" y="-111.8" font-family="Times-Roman" font-size="14.00">f</text>
</g>
<!-- dummy2 -->
<!-- aL2&#45;&gt;dummy2 -->
<!-- Wa2&#45;&gt;aR2 -->
<g id="edge2" class="edge">
<title>Wa2&#45;&gt;aR2</title>
<path fill="none" stroke="black" d="M128.89,-86.8C128.48,-75.16 127.93,-59.55 127.46,-46.24"/>
<polygon fill="black" stroke="black" points="130.96,-46.05 127.11,-36.18 123.96,-46.29 130.96,-46.05"/>
<text text-anchor="middle" x="140" y="-57.8" font-family="Times-Roman" font-size="14.00">ε_a</text>
</g>
<!-- WaL1 -->
<g id="node5" class="node">
<title>WaL1</title>
<text text-anchor="middle" x="211.5" y="-101.3" font-family="Times-Roman" font-size="14.00">W a</text>
</g>
<!-- WaR1 -->
<g id="node6" class="node">
<title>WaR1</title>
<text text-anchor="middle" x="304.5" y="-14.3" font-family="Times-Roman" font-size="14.00">W a</text>
</g>
<!-- WaL1&#45;&gt;WaR1 -->
<g id="edge7" class="edge">
<title>WaL1&#45;&gt;WaR1</title>
<path fill="none" stroke="black" d="M229.65,-86.06C245.78,-71.31 268.91,-50.18 285.03,-35.44"/>
<path fill="none" stroke="black" d="M230.99,-87.54C247.13,-72.79 270.26,-51.65 286.38,-36.91"/>
</g>
<!-- WWa1 -->
<g id="node7" class="node">
<title>WWa1</title>
<text text-anchor="middle" x="313.5" y="-101.3" font-family="Times-Roman" font-size="14.00">W(W a)</text>
</g>
<!-- WaL1&#45;&gt;WWa1 -->
<g id="edge5" class="edge">
<title>WaL1&#45;&gt;WWa1</title>
<path fill="none" stroke="black" d="M238.57,-105C248.04,-105 258.94,-105 269.43,-105"/>
<polygon fill="black" stroke="black" points="269.73,-108.5 279.73,-105 269.73,-101.5 269.73,-108.5"/>
<text text-anchor="middle" x="259.25" y="-111.8" font-family="Times-Roman" font-size="14.00">δ_a</text>
</g>
<!-- dummy1 -->
<!-- WaL1&#45;&gt;dummy1 -->
<!-- WWa1&#45;&gt;WaR1 -->
<g id="edge6" class="edge">
<title>WWa1&#45;&gt;WaR1</title>
<path fill="none" stroke="black" d="M311.68,-86.8C310.45,-75.16 308.79,-59.55 307.38,-46.24"/>
<polygon fill="black" stroke="black" points="310.85,-45.75 306.32,-36.18 303.89,-46.49 310.85,-45.75"/>
<text text-anchor="middle" x="330" y="-57.8" font-family="Times-Roman" font-size="14.00">W ε_a</text>
</g>
</g>
</svg>
