<?xml version="1.0" encoding="UTF-8" standalone="no"?>
<!DOCTYPE svg PUBLIC "-//W3C//DTD SVG 1.1//EN"
 "http://www.w3.org/Graphics/SVG/1.1/DTD/svg11.dtd">
<!-- Generated by graphviz version 2.43.0 (0)
 -->
<!-- Title: %3 Pages: 1 -->
<svg width="195pt" height="171pt"
 viewBox="0.00 0.00 195.00 171.00" xmlns="http://www.w3.org/2000/svg" xmlns:xlink="http://www.w3.org/1999/xlink">
<g id="graph0" class="graph" transform="scale(1 1) rotate(0) translate(4 167)">
<title>%3</title>
<polygon fill="white" stroke="transparent" points="-4,4 -4,-167 191,-167 191,4 -4,4"/>
<g id="clust1" class="cluster">
<title>clusterM</title>
<polygon fill="none" stroke="black" points="8,-8 8,-155 78,-155 78,-8 8,-8"/>
<text text-anchor="middle" x="43" y="-139.8" font-family="Times-Roman" font-size="14.00">Mon</text>
</g>
<g id="clust3" class="cluster">
<title>clusterSet</title>
<polygon fill="none" stroke="black" points="109,-8 109,-155 179,-155 179,-8 109,-8"/>
<text text-anchor="middle" x="144" y="-139.8" font-family="Times-Roman" font-size="14.00">Set</text>
</g>
<!-- funit -->
<g id="node1" class="node">
<title>funit</title>
<ellipse fill="gray" stroke="black" cx="43" cy="-34" rx="27" ry="18"/>
<text text-anchor="middle" x="43" y="-30.3" font-family="Times-Roman" font-size="14.00">F()</text>
</g>
<!-- m -->
<g id="node2" class="node">
<title>m</title>
<ellipse fill="gray" stroke="black" cx="43" cy="-106" rx="27" ry="18"/>
<text text-anchor="middle" x="43" y="-102.3" font-family="Times-Roman" font-size="14.00">m</text>
</g>
<!-- funit&#45;&gt;m -->
<g id="edge2" class="edge">
<title>funit&#45;&gt;m</title>
<path fill="none" stroke="black" d="M43,-52.17C43,-59.87 43,-69.03 43,-77.58"/>
<polygon fill="black" stroke="black" points="39.5,-77.59 43,-87.59 46.5,-77.59 39.5,-77.59"/>
<text text-anchor="middle" x="32.5" y="-66.3" font-family="Times-Roman" font-size="14.00">Mon(F(), m)</text>
</g>
<!-- um -->
<g id="node4" class="node">
<title>um</title>
<ellipse fill="gray" stroke="black" cx="144" cy="-106" rx="27" ry="18"/>
<text text-anchor="middle" x="144" y="-102.3" font-family="Times-Roman" font-size="14.00">Um</text>
</g>
<!-- m&#45;&gt;um -->
<g id="edge4" class="edge">
<title>m&#45;&gt;um</title>
<path fill="none" stroke="red" stroke-width="4" d="M70.01,-106C81.18,-106 94.42,-106 106.54,-106"/>
<polygon fill="red" stroke="red" stroke-width="4" points="106.82,-109.5 116.82,-106 106.82,-102.5 106.82,-109.5"/>
<text text-anchor="middle" x="93.5" y="-109.8" font-family="Times-Roman" font-size="14.00">U</text>
</g>
<!-- unit -->
<g id="node3" class="node">
<title>unit</title>
<ellipse fill="gray" stroke="black" cx="144" cy="-34" rx="27" ry="18"/>
<text text-anchor="middle" x="144" y="-30.3" font-family="Times-Roman" font-size="14.00">()</text>
</g>
<!-- unit&#45;&gt;funit -->
<g id="edge3" class="edge">
<title>unit&#45;&gt;funit</title>
<path fill="none" stroke="blue" stroke-width="4" d="M116.82,-34C105.63,-34 92.39,-34 80.28,-34"/>
<polygon fill="blue" stroke="blue" stroke-width="4" points="80.01,-30.5 70.01,-34 80.01,-37.5 80.01,-30.5"/>
<text text-anchor="middle" x="93.5" y="-37.8" font-family="Times-Roman" font-size="14.00">F</text>
</g>
<!-- unit&#45;&gt;um -->
<g id="edge1" class="edge">
<title>unit&#45;&gt;um</title>
<path fill="none" stroke="black" d="M144,-52.17C144,-59.87 144,-69.03 144,-77.58"/>
<polygon fill="black" stroke="black" points="140.5,-77.59 144,-87.59 147.5,-77.59 140.5,-77.59"/>
<text text-anchor="middle" x="133.5" y="-66.3" font-family="Times-Roman" font-size="14.00">((), Um)</text>
</g>
</g>
</svg>
