<?xml version="1.0" encoding="UTF-8" standalone="no"?>
<!DOCTYPE svg PUBLIC "-//W3C//DTD SVG 1.1//EN"
 "http://www.w3.org/Graphics/SVG/1.1/DTD/svg11.dtd">
<!-- Generated by graphviz version 2.43.0 (0)
 -->
<!-- Title: %3 Pages: 1 -->
<svg width="303pt" height="166pt"
 viewBox="0.00 0.00 303.19 165.84" xmlns="http://www.w3.org/2000/svg" xmlns:xlink="http://www.w3.org/1999/xlink">
<g id="graph0" class="graph" transform="scale(1 1) rotate(0) translate(4 161.84)">
<title>%3</title>
<polygon fill="white" stroke="transparent" points="-4,4 -4,-161.84 299.19,-161.84 299.19,4 -4,4"/>
<!-- a -->
<g id="node1" class="node">
<title>a</title>
<ellipse fill="lightgray" stroke="black" cx="27" cy="-123" rx="27" ry="18"/>
<text text-anchor="middle" x="27" y="-119.3" font-family="Times-Roman" font-size="14.00">a</text>
</g>
<!-- b -->
<g id="node2" class="node">
<title>b</title>
<ellipse fill="lightgray" stroke="black" cx="27" cy="-35" rx="27" ry="18"/>
<text text-anchor="middle" x="27" y="-31.3" font-family="Times-Roman" font-size="14.00">b</text>
</g>
<!-- a&#45;&gt;b -->
<g id="edge1" class="edge">
<title>a&#45;&gt;b</title>
<path fill="none" stroke="black" d="M27,-104.79C27,-92.88 27,-77.07 27,-63.51"/>
<polygon fill="black" stroke="black" points="30.5,-63.23 27,-53.23 23.5,-63.23 30.5,-63.23"/>
<text text-anchor="middle" x="16.5" y="-75.3" font-family="Times-Roman" font-size="14.00">f</text>
</g>
<!-- Fa -->
<g id="node3" class="node">
<title>Fa</title>
<ellipse fill="lightgray" stroke="black" cx="139.1" cy="-123" rx="27" ry="18"/>
<text text-anchor="middle" x="139.1" y="-119.3" font-family="Times-Roman" font-size="14.00">Fa</text>
</g>
<!-- a&#45;&gt;Fa -->
<g id="edge2" class="edge">
<title>a&#45;&gt;Fa</title>
<path fill="none" stroke="black" d="M54.09,-123C68.25,-123 85.98,-123 101.49,-123"/>
<polygon fill="black" stroke="black" points="101.81,-126.5 111.81,-123 101.81,-119.5 101.81,-126.5"/>
</g>
<!-- Ga -->
<g id="node5" class="node">
<title>Ga</title>
<ellipse fill="lightgray" stroke="black" cx="268.19" cy="-123" rx="27" ry="18"/>
<text text-anchor="middle" x="268.19" y="-119.3" font-family="Times-Roman" font-size="14.00">Ga</text>
</g>
<!-- a&#45;&gt;Ga -->
<g id="edge3" class="edge">
<title>a&#45;&gt;Ga</title>
<path fill="none" stroke="black" d="M48.31,-134.2C60.33,-140.19 76.08,-146.94 91,-150 148.66,-161.83 167.19,-160.13 223.19,-142 227.49,-140.61 231.95,-138.95 236.31,-137.2"/>
<polygon fill="black" stroke="black" points="237.71,-140.41 245.57,-133.3 235,-133.96 237.71,-140.41"/>
</g>
<!-- FbGb -->
<g id="node4" class="node">
<title>FbGb</title>
<ellipse fill="lightgray" stroke="black" cx="139.1" cy="-18" rx="48.19" ry="18"/>
<text text-anchor="middle" x="139.1" y="-14.3" font-family="Times-Roman" font-size="14.00">Fb = Gb</text>
</g>
<!-- b&#45;&gt;FbGb -->
<g id="edge4" class="edge">
<title>b&#45;&gt;FbGb</title>
<path fill="none" stroke="black" d="M53.53,-31.06C62.68,-29.64 73.37,-27.99 84.01,-26.35"/>
<polygon fill="black" stroke="black" points="84.8,-29.77 94.15,-24.79 83.73,-22.85 84.8,-29.77"/>
</g>
<!-- Fa&#45;&gt;FbGb -->
<g id="edge8" class="edge">
<title>Fa&#45;&gt;FbGb</title>
<path fill="none" stroke="yellow" d="M139.1,-104.92C139.1,-88.8 139.1,-64.94 139.1,-46.3"/>
<polygon fill="yellow" stroke="yellow" points="142.6,-46.29 139.1,-36.29 135.6,-46.29 142.6,-46.29"/>
<text text-anchor="middle" x="128.6" y="-66.8" font-family="Times-Roman" font-size="14.00">Ff = Gf ∘ αa</text>
</g>
<!-- Fa&#45;&gt;Ga -->
<g id="edge6" class="edge">
<title>Fa&#45;&gt;Ga</title>
<path fill="none" stroke="red" d="M166.12,-123C184.76,-123 210.11,-123 230.76,-123"/>
<polygon fill="red" stroke="red" points="230.76,-126.5 240.76,-123 230.76,-119.5 230.76,-126.5"/>
<text text-anchor="middle" x="214.19" y="-126.8" font-family="Times-Roman" font-size="14.00">αa</text>
</g>
<!-- FbGb&#45;&gt;FbGb -->
<g id="edge5" class="edge">
<title>FbGb&#45;&gt;FbGb</title>
<path fill="none" stroke="black" d="M127.23,-35.78C125.22,-45.31 129.17,-54 139.1,-54 145.14,-54 148.98,-50.77 150.59,-46.1"/>
<polygon fill="black" stroke="black" points="154.1,-45.9 150.96,-35.78 147.1,-45.65 154.1,-45.9"/>
<text text-anchor="middle" x="139.1" y="-57.8" font-family="Times-Roman" font-size="14.00">αb = id</text>
</g>
<!-- Ga&#45;&gt;FbGb -->
<g id="edge7" class="edge">
<title>Ga&#45;&gt;FbGb</title>
<path fill="none" stroke="red" d="M250.31,-109.06C229.23,-91.64 192.86,-61.59 167.7,-40.8"/>
<polygon fill="red" stroke="red" points="169.89,-38.08 159.95,-34.41 165.43,-43.47 169.89,-38.08"/>
<text text-anchor="middle" x="214.19" y="-89.8" font-family="Times-Roman" font-size="14.00">Gf</text>
</g>
</g>
</svg>
