<?xml version="1.0" encoding="UTF-8" standalone="no"?>
<!DOCTYPE svg PUBLIC "-//W3C//DTD SVG 1.1//EN"
 "http://www.w3.org/Graphics/SVG/1.1/DTD/svg11.dtd">
<!-- Generated by graphviz version 2.43.0 (0)
 -->
<!-- Title: %3 Pages: 1 -->
<svg width="371pt" height="123pt"
 viewBox="0.00 0.00 370.99 123.00" xmlns="http://www.w3.org/2000/svg" xmlns:xlink="http://www.w3.org/1999/xlink">
<g id="graph0" class="graph" transform="scale(1 1) rotate(0) translate(4 119)">
<title>%3</title>
<polygon fill="white" stroke="transparent" points="-4,4 -4,-119 366.99,-119 366.99,4 -4,4"/>
<!-- a -->
<g id="node1" class="node">
<title>a</title>
<ellipse fill="lightgray" stroke="black" cx="27" cy="-90" rx="27" ry="18"/>
<text text-anchor="middle" x="27" y="-86.3" font-family="Times-Roman" font-size="14.00">a</text>
</g>
<!-- b -->
<g id="node2" class="node">
<title>b</title>
<ellipse fill="lightgray" stroke="black" cx="27" cy="-18" rx="27" ry="18"/>
<text text-anchor="middle" x="27" y="-14.3" font-family="Times-Roman" font-size="14.00">b</text>
</g>
<!-- a&#45;&gt;b -->
<g id="edge1" class="edge">
<title>a&#45;&gt;b</title>
<path fill="none" stroke="black" d="M27,-71.59C27,-63.94 27,-54.89 27,-46.43"/>
<polygon fill="black" stroke="black" points="30.5,-46.17 27,-36.17 23.5,-46.17 30.5,-46.17"/>
<text text-anchor="middle" x="16.5" y="-50.3" font-family="Times-Roman" font-size="14.00">f</text>
</g>
<!-- Ga -->
<g id="node3" class="node">
<title>Ga</title>
<ellipse fill="lightgray" stroke="black" cx="335.99" cy="-97" rx="27" ry="18"/>
<text text-anchor="middle" x="335.99" y="-93.3" font-family="Times-Roman" font-size="14.00">Ga</text>
</g>
<!-- a&#45;&gt;Ga -->
<g id="edge2" class="edge">
<title>a&#45;&gt;Ga</title>
<path fill="none" stroke="black" d="M51.3,-98.33C63.04,-102.1 77.59,-106.12 91,-108 179.04,-120.33 202.51,-112.63 290.99,-104 293.71,-103.73 296.52,-103.41 299.34,-103.05"/>
<polygon fill="black" stroke="black" points="300.06,-106.48 309.47,-101.6 299.07,-99.55 300.06,-106.48"/>
</g>
<!-- FaFb -->
<g id="node5" class="node">
<title>FaFb</title>
<ellipse fill="lightgray" stroke="black" cx="136.5" cy="-48" rx="45.49" ry="18"/>
<text text-anchor="middle" x="136.5" y="-44.3" font-family="Times-Roman" font-size="14.00">Fa = Fb</text>
</g>
<!-- a&#45;&gt;FaFb -->
<g id="edge4" class="edge">
<title>a&#45;&gt;FaFb</title>
<path fill="none" stroke="black" d="M50.8,-81.09C63.33,-76.19 79.28,-69.96 93.95,-64.23"/>
<polygon fill="black" stroke="black" points="95.31,-67.46 103.35,-60.56 92.76,-60.94 95.31,-67.46"/>
</g>
<!-- Gb -->
<g id="node4" class="node">
<title>Gb</title>
<ellipse fill="lightgray" stroke="black" cx="335.99" cy="-25" rx="27" ry="18"/>
<text text-anchor="middle" x="335.99" y="-21.3" font-family="Times-Roman" font-size="14.00">Gb</text>
</g>
<!-- b&#45;&gt;Gb -->
<g id="edge3" class="edge">
<title>b&#45;&gt;Gb</title>
<path fill="none" stroke="black" d="M54.16,-18.46C84.8,-19 137.08,-19.98 181.99,-21 221.91,-21.91 267.69,-23.13 298.69,-23.98"/>
<polygon fill="black" stroke="black" points="298.91,-27.49 309,-24.27 299.11,-20.49 298.91,-27.49"/>
</g>
<!-- b&#45;&gt;FaFb -->
<g id="edge5" class="edge">
<title>b&#45;&gt;FaFb</title>
<path fill="none" stroke="black" d="M52.12,-24.73C62.97,-27.76 76.15,-31.44 88.8,-34.97"/>
<polygon fill="black" stroke="black" points="88.21,-38.44 98.78,-37.75 90.09,-31.69 88.21,-38.44"/>
</g>
<!-- Ga&#45;&gt;Gb -->
<g id="edge7" class="edge">
<title>Ga&#45;&gt;Gb</title>
<path fill="none" stroke="red" d="M335.99,-78.59C335.99,-70.94 335.99,-61.89 335.99,-53.43"/>
<polygon fill="red" stroke="red" points="339.49,-53.17 335.99,-43.17 332.49,-53.17 339.49,-53.17"/>
<text text-anchor="middle" x="325.49" y="-57.3" font-family="Times-Roman" font-size="14.00">Gf</text>
</g>
<!-- FaFb&#45;&gt;Ga -->
<g id="edge8" class="edge">
<title>FaFb&#45;&gt;Ga</title>
<path fill="none" stroke="red" d="M175.58,-57.45C211.79,-66.43 265.79,-79.83 300.7,-88.49"/>
<polygon fill="red" stroke="red" points="299.89,-91.9 310.44,-90.91 301.58,-85.1 299.89,-91.9"/>
<text text-anchor="middle" x="245.49" y="-88.8" font-family="Times-Roman" font-size="14.00">αa</text>
</g>
<!-- FaFb&#45;&gt;Gb -->
<g id="edge9" class="edge">
<title>FaFb&#45;&gt;Gb</title>
<path fill="none" stroke="yellow" d="M180.35,-43.01C215.77,-38.88 265.49,-33.09 298.91,-29.2"/>
<polygon fill="yellow" stroke="yellow" points="299.62,-32.64 309.14,-28.01 298.81,-25.69 299.62,-32.64"/>
<text text-anchor="middle" x="245.49" y="-43.8" font-family="Times-Roman" font-size="14.00">αb = Gf ∘ αa</text>
</g>
<!-- FaFb&#45;&gt;FaFb -->
<g id="edge6" class="edge">
<title>FaFb&#45;&gt;FaFb</title>
<path fill="none" stroke="black" d="M125.35,-65.78C123.46,-75.31 127.17,-84 136.5,-84 142.18,-84 145.78,-80.77 147.29,-76.1"/>
<polygon fill="black" stroke="black" points="150.8,-75.89 147.64,-65.78 143.81,-75.66 150.8,-75.89"/>
<text text-anchor="middle" x="136.5" y="-87.8" font-family="Times-Roman" font-size="14.00">Ff = id</text>
</g>
</g>
</svg>
