<?xml version="1.0" encoding="UTF-8" standalone="no"?>
<!DOCTYPE svg PUBLIC "-//W3C//DTD SVG 1.1//EN"
 "http://www.w3.org/Graphics/SVG/1.1/DTD/svg11.dtd">
<!-- Generated by graphviz version 2.43.0 (0)
 -->
<!-- Title: %3 Pages: 1 -->
<svg width="335pt" height="131pt"
 viewBox="0.00 0.00 335.00 131.00" xmlns="http://www.w3.org/2000/svg" xmlns:xlink="http://www.w3.org/1999/xlink">
<g id="graph0" class="graph" transform="scale(1 1) rotate(0) translate(4 127)">
<title>%3</title>
<polygon fill="white" stroke="transparent" points="-4,4 -4,-127 331,-127 331,4 -4,4"/>
<!-- WaL1 -->
<g id="node1" class="node">
<title>WaL1</title>
<text text-anchor="middle" x="27" y="-101.3" font-family="Times-Roman" font-size="14.00">Wa</text>
</g>
<!-- WaR1 -->
<g id="node2" class="node">
<title>WaR1</title>
<text text-anchor="middle" x="81" y="-14.3" font-family="Times-Roman" font-size="14.00">Wa</text>
</g>
<!-- WaL1&#45;&gt;WaR1 -->
<g id="edge3" class="edge">
<title>WaL1&#45;&gt;WaR1</title>
<path fill="none" stroke="black" stroke-dasharray="5,2" d="M37.93,-86.8C47.3,-72.05 60.72,-50.92 70.09,-36.18"/>
</g>
<!-- WWa1 -->
<g id="node3" class="node">
<title>WWa1</title>
<text text-anchor="middle" x="134" y="-101.3" font-family="Times-Roman" font-size="14.00">W(Wa)</text>
</g>
<!-- WaL1&#45;&gt;WWa1 -->
<g id="edge1" class="edge">
<title>WaL1&#45;&gt;WWa1</title>
<path fill="none" stroke="black" d="M54,-105C65.72,-105 79.72,-105 92.7,-105"/>
<polygon fill="black" stroke="black" points="92.84,-108.5 102.84,-105 92.84,-101.5 92.84,-108.5"/>
<text text-anchor="middle" x="78.5" y="-111.8" font-family="Times-Roman" font-size="14.00">Wδa</text>
</g>
<!-- WWa1&#45;&gt;WaR1 -->
<g id="edge2" class="edge">
<title>WWa1&#45;&gt;WaR1</title>
<path fill="none" stroke="black" d="M123.27,-86.8C115.73,-74.7 105.51,-58.3 97,-44.67"/>
<polygon fill="black" stroke="black" points="99.97,-42.81 91.71,-36.18 94.03,-46.51 99.97,-42.81"/>
<text text-anchor="middle" x="119" y="-57.8" font-family="Times-Roman" font-size="14.00">εa</text>
</g>
<!-- aL2 -->
<g id="node4" class="node">
<title>aL2</title>
<text text-anchor="middle" x="210" y="-101.3" font-family="Times-Roman" font-size="14.00">a</text>
</g>
<!-- aR2 -->
<g id="node5" class="node">
<title>aR2</title>
<text text-anchor="middle" x="240" y="-14.3" font-family="Times-Roman" font-size="14.00">a</text>
</g>
<!-- aL2&#45;&gt;aR2 -->
<g id="edge6" class="edge">
<title>aL2&#45;&gt;aR2</title>
<path fill="none" stroke="black" stroke-dasharray="5,2" d="M216.07,-86.8C221.28,-72.05 228.74,-50.92 233.94,-36.18"/>
</g>
<!-- Wa2 -->
<g id="node6" class="node">
<title>Wa2</title>
<text text-anchor="middle" x="300" y="-101.3" font-family="Times-Roman" font-size="14.00">Wa</text>
</g>
<!-- aL2&#45;&gt;Wa2 -->
<g id="edge4" class="edge">
<title>aL2&#45;&gt;Wa2</title>
<path fill="none" stroke="black" d="M237,-105C245.03,-105 253.97,-105 262.53,-105"/>
<polygon fill="black" stroke="black" points="262.71,-108.5 272.71,-105 262.7,-101.5 262.71,-108.5"/>
<text text-anchor="middle" x="255" y="-111.8" font-family="Times-Roman" font-size="14.00">f</text>
</g>
<!-- Wa2&#45;&gt;aR2 -->
<g id="edge5" class="edge">
<title>Wa2&#45;&gt;aR2</title>
<path fill="none" stroke="black" d="M287.86,-86.8C279.32,-74.7 267.74,-58.3 258.12,-44.67"/>
<polygon fill="black" stroke="black" points="260.75,-42.33 252.12,-36.18 255.03,-46.36 260.75,-42.33"/>
<text text-anchor="middle" x="281" y="-57.8" font-family="Times-Roman" font-size="14.00">εa</text>
</g>
</g>
</svg>
