<?xml version="1.0" encoding="UTF-8" standalone="no"?>
<!DOCTYPE svg PUBLIC "-//W3C//DTD SVG 1.1//EN"
 "http://www.w3.org/Graphics/SVG/1.1/DTD/svg11.dtd">
<!-- Generated by graphviz version 2.43.0 (0)
 -->
<!-- Title: %3 Pages: 1 -->
<svg width="345pt" height="131pt"
 viewBox="0.00 0.00 344.50 131.00" xmlns="http://www.w3.org/2000/svg" xmlns:xlink="http://www.w3.org/1999/xlink">
<g id="graph0" class="graph" transform="scale(1 1) rotate(0) translate(4 127)">
<title>%3</title>
<polygon fill="white" stroke="transparent" points="-4,4 -4,-127 340.5,-127 340.5,4 -4,4"/>
<!-- aL2 -->
<g id="node1" class="node">
<title>aL2</title>
<text text-anchor="middle" x="39.5" y="-101.3" font-family="Times-Roman" font-size="14.00">a</text>
</g>
<!-- aR2 -->
<g id="node2" class="node">
<title>aR2</title>
<text text-anchor="middle" x="126.5" y="-14.3" font-family="Times-Roman" font-size="14.00">a</text>
</g>
<!-- aL2&#45;&gt;aR2 -->
<g id="edge3" class="edge">
<title>aL2&#45;&gt;aR2</title>
<path fill="none" stroke="black" d="M56.41,-86.08C71.5,-71.34 93.14,-50.2 108.22,-35.46"/>
<path fill="none" stroke="black" d="M57.8,-87.51C72.9,-72.77 94.53,-51.63 109.62,-36.89"/>
</g>
<!-- Wa2 -->
<g id="node3" class="node">
<title>Wa2</title>
<text text-anchor="middle" x="129.5" y="-101.3" font-family="Times-Roman" font-size="14.00">Wa</text>
</g>
<!-- aL2&#45;&gt;Wa2 -->
<g id="edge1" class="edge">
<title>aL2&#45;&gt;Wa2</title>
<path fill="none" stroke="black" d="M66.5,-105C74.53,-105 83.47,-105 92.03,-105"/>
<polygon fill="black" stroke="black" points="92.21,-108.5 102.21,-105 92.2,-101.5 92.21,-108.5"/>
<text text-anchor="middle" x="84.5" y="-111.8" font-family="Times-Roman" font-size="14.00">f</text>
</g>
<!-- dummy2 -->
<!-- aL2&#45;&gt;dummy2 -->
<!-- Wa2&#45;&gt;aR2 -->
<g id="edge2" class="edge">
<title>Wa2&#45;&gt;aR2</title>
<path fill="none" stroke="black" d="M128.89,-86.8C128.48,-75.16 127.93,-59.55 127.46,-46.24"/>
<polygon fill="black" stroke="black" points="130.96,-46.05 127.11,-36.18 123.96,-46.29 130.96,-46.05"/>
<text text-anchor="middle" x="136.5" y="-57.8" font-family="Times-Roman" font-size="14.00">εa</text>
</g>
<!-- WaL1 -->
<g id="node5" class="node">
<title>WaL1</title>
<text text-anchor="middle" x="211.5" y="-101.3" font-family="Times-Roman" font-size="14.00">Wa</text>
</g>
<!-- WaR1 -->
<g id="node6" class="node">
<title>WaR1</title>
<text text-anchor="middle" x="300.5" y="-14.3" font-family="Times-Roman" font-size="14.00">Wa</text>
</g>
<!-- WaL1&#45;&gt;WaR1 -->
<g id="edge7" class="edge">
<title>WaL1&#45;&gt;WaR1</title>
<path fill="none" stroke="black" d="M228.82,-86.08C244.26,-71.33 266.39,-50.19 281.83,-35.45"/>
<path fill="none" stroke="black" d="M230.2,-87.52C245.64,-72.78 267.77,-51.64 283.21,-36.9"/>
</g>
<!-- WWa1 -->
<g id="node7" class="node">
<title>WWa1</title>
<text text-anchor="middle" x="305.5" y="-101.3" font-family="Times-Roman" font-size="14.00">W(Wa)</text>
</g>
<!-- WaL1&#45;&gt;WWa1 -->
<g id="edge5" class="edge">
<title>WaL1&#45;&gt;WWa1</title>
<path fill="none" stroke="black" d="M238.69,-105C246.72,-105 255.69,-105 264.39,-105"/>
<polygon fill="black" stroke="black" points="264.4,-108.5 274.4,-105 264.4,-101.5 264.4,-108.5"/>
<text text-anchor="middle" x="256.5" y="-111.8" font-family="Times-Roman" font-size="14.00">δa</text>
</g>
<!-- dummy1 -->
<!-- WaL1&#45;&gt;dummy1 -->
<!-- WWa1&#45;&gt;WaR1 -->
<g id="edge6" class="edge">
<title>WWa1&#45;&gt;WaR1</title>
<path fill="none" stroke="black" d="M304.49,-86.8C303.8,-75.16 302.89,-59.55 302.1,-46.24"/>
<polygon fill="black" stroke="black" points="305.59,-45.95 301.51,-36.18 298.6,-46.36 305.59,-45.95"/>
<text text-anchor="middle" x="317.5" y="-57.8" font-family="Times-Roman" font-size="14.00">Wεa</text>
</g>
</g>
</svg>
