<?xml version="1.0" encoding="UTF-8" standalone="no"?>
<!DOCTYPE svg PUBLIC "-//W3C//DTD SVG 1.1//EN"
 "http://www.w3.org/Graphics/SVG/1.1/DTD/svg11.dtd">
<!-- Generated by graphviz version 2.43.0 (0)
 -->
<!-- Title: %3 Pages: 1 -->
<svg width="300pt" height="194pt"
 viewBox="0.00 0.00 300.29 194.00" xmlns="http://www.w3.org/2000/svg" xmlns:xlink="http://www.w3.org/1999/xlink">
<g id="graph0" class="graph" transform="scale(1 1) rotate(0) translate(4 190)">
<title>%3</title>
<polygon fill="white" stroke="transparent" points="-4,4 -4,-190 296.29,-190 296.29,4 -4,4"/>
<!-- a -->
<g id="node1" class="node">
<title>a</title>
<ellipse fill="lightgray" stroke="black" cx="27" cy="-90" rx="27" ry="18"/>
<text text-anchor="middle" x="27" y="-86.3" font-family="Times-Roman" font-size="14.00">a</text>
</g>
<!-- b -->
<g id="node2" class="node">
<title>b</title>
<ellipse fill="lightgray" stroke="black" cx="27" cy="-18" rx="27" ry="18"/>
<text text-anchor="middle" x="27" y="-14.3" font-family="Times-Roman" font-size="14.00">b</text>
</g>
<!-- a&#45;&gt;b -->
<g id="edge1" class="edge">
<title>a&#45;&gt;b</title>
<path fill="none" stroke="black" d="M27,-71.59C27,-63.94 27,-54.89 27,-46.43"/>
<polygon fill="black" stroke="black" points="30.5,-46.17 27,-36.17 23.5,-46.17 30.5,-46.17"/>
<text text-anchor="middle" x="16.5" y="-50.3" font-family="Times-Roman" font-size="14.00">f</text>
</g>
<!-- Gb -->
<g id="node3" class="node">
<title>Gb</title>
<ellipse fill="lightgray" stroke="black" cx="137.15" cy="-63" rx="27" ry="18"/>
<text text-anchor="middle" x="137.15" y="-59.3" font-family="Times-Roman" font-size="14.00">Gb</text>
</g>
<!-- a&#45;&gt;Gb -->
<g id="edge2" class="edge">
<title>a&#45;&gt;Gb</title>
<path fill="none" stroke="black" d="M52.54,-83.87C67.06,-80.25 85.67,-75.6 101.65,-71.61"/>
<polygon fill="black" stroke="black" points="102.85,-74.92 111.7,-69.1 101.15,-68.13 102.85,-74.92"/>
</g>
<!-- FaGa -->
<g id="node4" class="node">
<title>FaGa</title>
<ellipse fill="lightgray" stroke="black" cx="137.15" cy="-135" rx="46.29" ry="18"/>
<text text-anchor="middle" x="137.15" y="-131.3" font-family="Times-Roman" font-size="14.00">Fa = Ga</text>
</g>
<!-- a&#45;&gt;FaGa -->
<g id="edge3" class="edge">
<title>a&#45;&gt;FaGa</title>
<path fill="none" stroke="black" d="M50.41,-99.32C63.42,-104.74 80.21,-111.73 95.48,-118.08"/>
<polygon fill="black" stroke="black" points="94.17,-121.32 104.75,-121.93 96.86,-114.86 94.17,-121.32"/>
</g>
<!-- b&#45;&gt;Gb -->
<g id="edge5" class="edge">
<title>b&#45;&gt;Gb</title>
<path fill="none" stroke="black" d="M50.41,-27.32C65.92,-33.78 86.81,-42.47 104.08,-49.66"/>
<polygon fill="black" stroke="black" points="103.19,-53.08 113.77,-53.69 105.88,-46.61 103.19,-53.08"/>
</g>
<!-- Fb -->
<g id="node5" class="node">
<title>Fb</title>
<ellipse fill="lightgray" stroke="black" cx="265.29" cy="-63" rx="27" ry="18"/>
<text text-anchor="middle" x="265.29" y="-59.3" font-family="Times-Roman" font-size="14.00">Fb</text>
</g>
<!-- b&#45;&gt;Fb -->
<g id="edge4" class="edge">
<title>b&#45;&gt;Fb</title>
<path fill="none" stroke="black" d="M54.1,-19.38C85.18,-21.4 138.52,-26.05 183.29,-36 199.63,-39.63 217.32,-45.31 231.99,-50.53"/>
<polygon fill="black" stroke="black" points="231.01,-53.9 241.6,-54.04 233.41,-47.32 231.01,-53.9"/>
</g>
<!-- FaGa&#45;&gt;Gb -->
<g id="edge9" class="edge">
<title>FaGa&#45;&gt;Gb</title>
<path fill="none" stroke="yellow" d="M137.15,-116.59C137.15,-108.94 137.15,-99.89 137.15,-91.43"/>
<polygon fill="yellow" stroke="yellow" points="140.65,-91.17 137.15,-81.17 133.65,-91.17 140.65,-91.17"/>
<text text-anchor="middle" x="126.65" y="-95.3" font-family="Times-Roman" font-size="14.00">Gf</text>
</g>
<!-- FaGa&#45;&gt;FaGa -->
<g id="edge6" class="edge">
<title>FaGa&#45;&gt;FaGa</title>
<path fill="none" stroke="black" d="M125.64,-152.78C123.69,-162.31 127.52,-171 137.15,-171 143.01,-171 146.73,-167.77 148.29,-163.1"/>
<polygon fill="black" stroke="black" points="151.8,-162.9 148.65,-152.78 144.8,-162.65 151.8,-162.9"/>
<text text-anchor="middle" x="137.15" y="-174.8" font-family="Times-Roman" font-size="14.00">αa = ida</text>
</g>
<!-- FaGa&#45;&gt;Fb -->
<g id="edge7" class="edge">
<title>FaGa&#45;&gt;Fb</title>
<path fill="none" stroke="red" d="M163.98,-120.26C184.79,-108.38 214.03,-91.69 235.58,-79.39"/>
<polygon fill="red" stroke="red" points="237.34,-82.41 244.29,-74.41 233.87,-76.33 237.34,-82.41"/>
<text text-anchor="middle" x="210.79" y="-100.8" font-family="Times-Roman" font-size="14.00">Ff</text>
</g>
<!-- Fb&#45;&gt;Gb -->
<g id="edge8" class="edge">
<title>Fb&#45;&gt;Gb</title>
<path fill="none" stroke="red" d="M238.19,-63C219.76,-63 194.82,-63 174.46,-63"/>
<polygon fill="red" stroke="red" points="174.28,-59.5 164.28,-63 174.28,-66.5 174.28,-59.5"/>
<text text-anchor="middle" x="210.79" y="-66.8" font-family="Times-Roman" font-size="14.00">αb</text>
</g>
</g>
</svg>
