<?xml version="1.0" encoding="UTF-8" standalone="no"?>
<!DOCTYPE svg PUBLIC "-//W3C//DTD SVG 1.1//EN"
 "http://www.w3.org/Graphics/SVG/1.1/DTD/svg11.dtd">
<!-- Generated by graphviz version 2.43.0 (0)
 -->
<!-- Title: %3 Pages: 1 -->
<svg width="307pt" height="179pt"
 viewBox="0.00 0.00 306.79 179.00" xmlns="http://www.w3.org/2000/svg" xmlns:xlink="http://www.w3.org/1999/xlink">
<g id="graph0" class="graph" transform="scale(1 1) rotate(0) translate(4 175)">
<title>%3</title>
<polygon fill="white" stroke="transparent" points="-4,4 -4,-175 302.79,-175 302.79,4 -4,4"/>
<!-- a -->
<g id="node1" class="node">
<title>a</title>
<ellipse fill="lightgray" stroke="black" cx="27" cy="-90" rx="27" ry="18"/>
<text text-anchor="middle" x="27" y="-86.3" font-family="Times-Roman" font-size="14.00">a</text>
</g>
<!-- b -->
<g id="node2" class="node">
<title>b</title>
<ellipse fill="lightgray" stroke="black" cx="27" cy="-18" rx="27" ry="18"/>
<text text-anchor="middle" x="27" y="-14.3" font-family="Times-Roman" font-size="14.00">b</text>
</g>
<!-- a&#45;&gt;b -->
<g id="edge1" class="edge">
<title>a&#45;&gt;b</title>
<path fill="none" stroke="black" d="M27,-71.59C27,-63.94 27,-54.89 27,-46.43"/>
<polygon fill="black" stroke="black" points="30.5,-46.17 27,-36.17 23.5,-46.17 30.5,-46.17"/>
<text text-anchor="middle" x="16.5" y="-50.3" font-family="Times-Roman" font-size="14.00">f</text>
</g>
<!-- Fa -->
<g id="node3" class="node">
<title>Fa</title>
<ellipse fill="lightgray" stroke="black" cx="140.4" cy="-153" rx="27" ry="18"/>
<text text-anchor="middle" x="140.4" y="-149.3" font-family="Times-Roman" font-size="14.00">Fa</text>
</g>
<!-- a&#45;&gt;Fa -->
<g id="edge2" class="edge">
<title>a&#45;&gt;Fa</title>
<path fill="none" stroke="black" d="M48.17,-101.41C65.6,-111.27 90.99,-125.63 110.57,-136.7"/>
<polygon fill="black" stroke="black" points="108.95,-139.8 119.37,-141.68 112.39,-133.71 108.95,-139.8"/>
</g>
<!-- GaGb -->
<g id="node4" class="node">
<title>GaGb</title>
<ellipse fill="lightgray" stroke="black" cx="140.4" cy="-63" rx="49.29" ry="18"/>
<text text-anchor="middle" x="140.4" y="-59.3" font-family="Times-Roman" font-size="14.00">Ga = Gb</text>
</g>
<!-- a&#45;&gt;GaGb -->
<g id="edge4" class="edge">
<title>a&#45;&gt;GaGb</title>
<path fill="none" stroke="black" d="M52.72,-84.01C63.34,-81.43 76.17,-78.33 88.66,-75.3"/>
<polygon fill="black" stroke="black" points="89.66,-78.66 98.55,-72.9 88.01,-71.85 89.66,-78.66"/>
</g>
<!-- b&#45;&gt;GaGb -->
<g id="edge5" class="edge">
<title>b&#45;&gt;GaGb</title>
<path fill="none" stroke="black" d="M50.54,-27.11C63.92,-32.51 81.3,-39.53 97.14,-45.93"/>
<polygon fill="black" stroke="black" points="96.17,-49.31 106.75,-49.81 98.79,-42.82 96.17,-49.31"/>
</g>
<!-- Fb -->
<g id="node5" class="node">
<title>Fb</title>
<ellipse fill="lightgray" stroke="black" cx="271.79" cy="-63" rx="27" ry="18"/>
<text text-anchor="middle" x="271.79" y="-59.3" font-family="Times-Roman" font-size="14.00">Fb</text>
</g>
<!-- b&#45;&gt;Fb -->
<g id="edge3" class="edge">
<title>b&#45;&gt;Fb</title>
<path fill="none" stroke="black" d="M54.05,-19.21C86.26,-21.08 142.59,-25.63 189.79,-36 206.14,-39.59 223.83,-45.27 238.49,-50.49"/>
<polygon fill="black" stroke="black" points="237.52,-53.86 248.11,-54.01 239.92,-47.29 237.52,-53.86"/>
</g>
<!-- Fa&#45;&gt;GaGb -->
<g id="edge9" class="edge">
<title>Fa&#45;&gt;GaGb</title>
<path fill="none" stroke="yellow" d="M140.4,-134.81C140.4,-122.38 140.4,-105.64 140.4,-91.45"/>
<polygon fill="yellow" stroke="yellow" points="143.9,-91.21 140.4,-81.21 136.9,-91.21 143.9,-91.21"/>
<text text-anchor="middle" x="129.9" y="-104.3" font-family="Times-Roman" font-size="14.00">αa</text>
</g>
<!-- Fa&#45;&gt;Fb -->
<g id="edge7" class="edge">
<title>Fa&#45;&gt;Fb</title>
<path fill="none" stroke="red" d="M159.66,-140.3C181.6,-125.04 218.58,-99.31 243.81,-81.77"/>
<polygon fill="red" stroke="red" points="245.99,-84.51 252.2,-75.93 241.99,-78.77 245.99,-84.51"/>
<text text-anchor="middle" x="217.29" y="-108.8" font-family="Times-Roman" font-size="14.00">Ff</text>
</g>
<!-- GaGb&#45;&gt;GaGb -->
<g id="edge6" class="edge">
<title>GaGb&#45;&gt;GaGb</title>
<path fill="none" stroke="black" d="M128.53,-80.78C126.52,-90.31 130.47,-99 140.4,-99 146.44,-99 150.28,-95.77 151.89,-91.1"/>
<polygon fill="black" stroke="black" points="155.4,-90.9 152.26,-80.78 148.4,-90.65 155.4,-90.9"/>
<text text-anchor="middle" x="103.52" y="-84.64" font-family="Times-Roman" font-size="14.00">Gf = id</text>
</g>
<!-- Fb&#45;&gt;GaGb -->
<g id="edge8" class="edge">
<title>Fb&#45;&gt;GaGb</title>
<path fill="none" stroke="red" d="M244.5,-63C231.65,-63 215.62,-63 200.06,-63"/>
<polygon fill="red" stroke="red" points="199.95,-59.5 189.95,-63 199.95,-66.5 199.95,-59.5"/>
<text text-anchor="middle" x="217.29" y="-66.8" font-family="Times-Roman" font-size="14.00">αb</text>
</g>
</g>
</svg>
