<?xml version="1.0" encoding="UTF-8" standalone="no"?>
<!DOCTYPE svg PUBLIC "-//W3C//DTD SVG 1.1//EN"
 "http://www.w3.org/Graphics/SVG/1.1/DTD/svg11.dtd">
<!-- Generated by graphviz version 2.43.0 (0)
 -->
<!-- Title: %3 Pages: 1 -->
<svg width="310pt" height="151pt"
 viewBox="0.00 0.00 310.19 151.10" xmlns="http://www.w3.org/2000/svg" xmlns:xlink="http://www.w3.org/1999/xlink">
<g id="graph0" class="graph" transform="scale(1 1) rotate(0) translate(4 147.1)">
<title>%3</title>
<polygon fill="white" stroke="transparent" points="-4,4 -4,-147.1 306.19,-147.1 306.19,4 -4,4"/>
<!-- a -->
<g id="node1" class="node">
<title>a</title>
<ellipse fill="lightgray" stroke="black" cx="27" cy="-108" rx="27" ry="18"/>
<text text-anchor="middle" x="27" y="-104.3" font-family="Times-Roman" font-size="14.00">a</text>
</g>
<!-- b -->
<g id="node2" class="node">
<title>b</title>
<ellipse fill="lightgray" stroke="black" cx="27" cy="-27" rx="27" ry="18"/>
<text text-anchor="middle" x="27" y="-23.3" font-family="Times-Roman" font-size="14.00">b</text>
</g>
<!-- a&#45;&gt;b -->
<g id="edge1" class="edge">
<title>a&#45;&gt;b</title>
<path fill="none" stroke="black" d="M27,-89.97C27,-79.81 27,-66.9 27,-55.41"/>
<polygon fill="black" stroke="black" points="30.5,-55.38 27,-45.38 23.5,-55.38 30.5,-55.38"/>
<text text-anchor="middle" x="16.5" y="-63.8" font-family="Times-Roman" font-size="14.00">f</text>
</g>
<!-- Fa -->
<g id="node3" class="node">
<title>Fa</title>
<ellipse fill="lightgray" stroke="black" cx="139.1" cy="-108" rx="27" ry="18"/>
<text text-anchor="middle" x="139.1" y="-104.3" font-family="Times-Roman" font-size="14.00">Fa</text>
</g>
<!-- a&#45;&gt;Fa -->
<g id="edge2" class="edge">
<title>a&#45;&gt;Fa</title>
<path fill="none" stroke="black" d="M54.09,-108C68.25,-108 85.98,-108 101.49,-108"/>
<polygon fill="black" stroke="black" points="101.81,-111.5 111.81,-108 101.81,-104.5 101.81,-111.5"/>
</g>
<!-- Ga -->
<g id="node5" class="node">
<title>Ga</title>
<ellipse fill="lightgray" stroke="black" cx="275.19" cy="-108" rx="27" ry="18"/>
<text text-anchor="middle" x="275.19" y="-104.3" font-family="Times-Roman" font-size="14.00">Ga</text>
</g>
<!-- a&#45;&gt;Ga -->
<g id="edge3" class="edge">
<title>a&#45;&gt;Ga</title>
<path fill="none" stroke="black" d="M48.31,-119.2C60.33,-125.19 76.08,-131.94 91,-135 151.7,-147.46 170.92,-145.06 230.19,-127 234.52,-125.68 238.99,-124.07 243.35,-122.34"/>
<polygon fill="black" stroke="black" points="244.75,-125.55 252.62,-118.46 242.04,-119.09 244.75,-125.55"/>
</g>
<!-- FbGb -->
<g id="node4" class="node">
<title>FbGb</title>
<ellipse fill="lightgray" stroke="black" cx="139.1" cy="-18" rx="48.19" ry="18"/>
<text text-anchor="middle" x="139.1" y="-14.3" font-family="Times-Roman" font-size="14.00">Fb = Gb</text>
</g>
<!-- b&#45;&gt;FbGb -->
<g id="edge4" class="edge">
<title>b&#45;&gt;FbGb</title>
<path fill="none" stroke="black" d="M54.09,-24.87C62.49,-24.18 72.15,-23.39 81.86,-22.6"/>
<polygon fill="black" stroke="black" points="82.26,-26.08 91.94,-21.77 81.69,-19.1 82.26,-26.08"/>
</g>
<!-- Fa&#45;&gt;FbGb -->
<g id="edge8" class="edge">
<title>Fa&#45;&gt;FbGb</title>
<path fill="none" stroke="yellow" d="M139.1,-89.81C139.1,-77.38 139.1,-60.64 139.1,-46.45"/>
<polygon fill="yellow" stroke="yellow" points="142.6,-46.21 139.1,-36.21 135.6,-46.21 142.6,-46.21"/>
<text text-anchor="middle" x="128.6" y="-59.3" font-family="Times-Roman" font-size="14.00">Ff</text>
</g>
<!-- Fa&#45;&gt;Ga -->
<g id="edge6" class="edge">
<title>Fa&#45;&gt;Ga</title>
<path fill="none" stroke="red" d="M166.27,-108C186.67,-108 215.23,-108 237.84,-108"/>
<polygon fill="red" stroke="red" points="238.08,-111.5 248.08,-108 238.08,-104.5 238.08,-111.5"/>
<text text-anchor="middle" x="217.69" y="-111.8" font-family="Times-Roman" font-size="14.00">α_a</text>
</g>
<!-- FbGb&#45;&gt;FbGb -->
<g id="edge5" class="edge">
<title>FbGb&#45;&gt;FbGb</title>
<path fill="none" stroke="black" d="M127.23,-35.78C125.22,-45.31 129.17,-54 139.1,-54 145.14,-54 148.98,-50.77 150.59,-46.1"/>
<polygon fill="black" stroke="black" points="154.1,-45.9 150.96,-35.78 147.1,-45.65 154.1,-45.9"/>
<text text-anchor="middle" x="164.72" y="-39.64" font-family="Times-Roman" font-size="14.00">α_b = id_b</text>
</g>
<!-- Ga&#45;&gt;FbGb -->
<g id="edge7" class="edge">
<title>Ga&#45;&gt;FbGb</title>
<path fill="none" stroke="red" d="M255.42,-95.4C233.79,-80.88 197.87,-56.78 171.86,-39.32"/>
<polygon fill="red" stroke="red" points="173.71,-36.34 163.45,-33.68 169.81,-42.16 173.71,-36.34"/>
<text text-anchor="middle" x="217.69" y="-79.8" font-family="Times-Roman" font-size="14.00">Gf</text>
</g>
</g>
</svg>
