<?xml version="1.0" encoding="UTF-8" standalone="no"?>
<!DOCTYPE svg PUBLIC "-//W3C//DTD SVG 1.1//EN"
 "http://www.w3.org/Graphics/SVG/1.1/DTD/svg11.dtd">
<!-- Generated by graphviz version 2.43.0 (0)
 -->
<!-- Title: %3 Pages: 1 -->
<svg width="299pt" height="123pt"
 viewBox="0.00 0.00 298.99 123.00" xmlns="http://www.w3.org/2000/svg" xmlns:xlink="http://www.w3.org/1999/xlink">
<g id="graph0" class="graph" transform="scale(1 1) rotate(0) translate(4 119)">
<title>%3</title>
<polygon fill="white" stroke="transparent" points="-4,4 -4,-119 294.99,-119 294.99,4 -4,4"/>
<!-- a -->
<g id="node1" class="node">
<title>a</title>
<ellipse fill="lightgray" stroke="black" cx="27" cy="-90" rx="27" ry="18"/>
<text text-anchor="middle" x="27" y="-86.3" font-family="Times-Roman" font-size="14.00">a</text>
</g>
<!-- b -->
<g id="node2" class="node">
<title>b</title>
<ellipse fill="lightgray" stroke="black" cx="27" cy="-18" rx="27" ry="18"/>
<text text-anchor="middle" x="27" y="-14.3" font-family="Times-Roman" font-size="14.00">b</text>
</g>
<!-- a&#45;&gt;b -->
<g id="edge1" class="edge">
<title>a&#45;&gt;b</title>
<path fill="none" stroke="black" d="M27,-71.59C27,-63.94 27,-54.89 27,-46.43"/>
<polygon fill="black" stroke="black" points="30.5,-46.17 27,-36.17 23.5,-46.17 30.5,-46.17"/>
<text text-anchor="middle" x="16.5" y="-50.3" font-family="Times-Roman" font-size="14.00">f</text>
</g>
<!-- Ga -->
<g id="node3" class="node">
<title>Ga</title>
<ellipse fill="lightgray" stroke="black" cx="263.99" cy="-97" rx="27" ry="18"/>
<text text-anchor="middle" x="263.99" y="-93.3" font-family="Times-Roman" font-size="14.00">Ga</text>
</g>
<!-- a&#45;&gt;Ga -->
<g id="edge2" class="edge">
<title>a&#45;&gt;Ga</title>
<path fill="none" stroke="black" d="M51.3,-98.33C63.04,-102.1 77.59,-106.12 91,-108 137.99,-114.58 192.77,-108.79 227.65,-103.42"/>
<polygon fill="black" stroke="black" points="228.49,-106.83 237.81,-101.79 227.38,-99.92 228.49,-106.83"/>
</g>
<!-- FaFb -->
<g id="node5" class="node">
<title>FaFb</title>
<ellipse fill="lightgray" stroke="black" cx="136.5" cy="-48" rx="45.49" ry="18"/>
<text text-anchor="middle" x="136.5" y="-44.3" font-family="Times-Roman" font-size="14.00">Fa = Fb</text>
</g>
<!-- a&#45;&gt;FaFb -->
<g id="edge4" class="edge">
<title>a&#45;&gt;FaFb</title>
<path fill="none" stroke="black" d="M50.8,-81.09C63.33,-76.19 79.28,-69.96 93.95,-64.23"/>
<polygon fill="black" stroke="black" points="95.31,-67.46 103.35,-60.56 92.76,-60.94 95.31,-67.46"/>
</g>
<!-- Gb -->
<g id="node4" class="node">
<title>Gb</title>
<ellipse fill="lightgray" stroke="black" cx="263.99" cy="-25" rx="27" ry="18"/>
<text text-anchor="middle" x="263.99" y="-21.3" font-family="Times-Roman" font-size="14.00">Gb</text>
</g>
<!-- b&#45;&gt;Gb -->
<g id="edge3" class="edge">
<title>b&#45;&gt;Gb</title>
<path fill="none" stroke="black" d="M54.16,-18.27C84.81,-18.65 137.1,-19.45 181.99,-21 196.57,-21.5 212.61,-22.25 226.55,-22.97"/>
<polygon fill="black" stroke="black" points="226.57,-26.47 236.74,-23.5 226.93,-19.48 226.57,-26.47"/>
</g>
<!-- b&#45;&gt;FaFb -->
<g id="edge5" class="edge">
<title>b&#45;&gt;FaFb</title>
<path fill="none" stroke="black" d="M52.12,-24.73C62.97,-27.76 76.15,-31.44 88.8,-34.97"/>
<polygon fill="black" stroke="black" points="88.21,-38.44 98.78,-37.75 90.09,-31.69 88.21,-38.44"/>
</g>
<!-- Ga&#45;&gt;Gb -->
<g id="edge7" class="edge">
<title>Ga&#45;&gt;Gb</title>
<path fill="none" stroke="red" d="M263.99,-78.59C263.99,-70.94 263.99,-61.89 263.99,-53.43"/>
<polygon fill="red" stroke="red" points="267.49,-53.17 263.99,-43.17 260.49,-53.17 267.49,-53.17"/>
<text text-anchor="middle" x="253.49" y="-57.3" font-family="Times-Roman" font-size="14.00">Gf</text>
</g>
<!-- FaFb&#45;&gt;Ga -->
<g id="edge8" class="edge">
<title>FaFb&#45;&gt;Ga</title>
<path fill="none" stroke="red" d="M169.49,-60.49C188.29,-67.83 211.98,-77.08 230.81,-84.44"/>
<polygon fill="red" stroke="red" points="229.58,-87.71 240.17,-88.09 232.12,-81.19 229.58,-87.71"/>
<text text-anchor="middle" x="209.49" y="-82.8" font-family="Times-Roman" font-size="14.00">αa</text>
</g>
<!-- FaFb&#45;&gt;Gb -->
<g id="edge9" class="edge">
<title>FaFb&#45;&gt;Gb</title>
<path fill="none" stroke="yellow" d="M178.24,-40.53C194.17,-37.61 212.27,-34.3 227.65,-31.48"/>
<polygon fill="yellow" stroke="yellow" points="228.59,-34.86 237.79,-29.62 227.32,-27.98 228.59,-34.86"/>
<text text-anchor="middle" x="209.49" y="-39.8" font-family="Times-Roman" font-size="14.00">αb</text>
</g>
<!-- FaFb&#45;&gt;FaFb -->
<g id="edge6" class="edge">
<title>FaFb&#45;&gt;FaFb</title>
<path fill="none" stroke="black" d="M125.35,-65.78C123.46,-75.31 127.17,-84 136.5,-84 142.18,-84 145.78,-80.77 147.29,-76.1"/>
<polygon fill="black" stroke="black" points="150.8,-75.89 147.64,-65.78 143.81,-75.66 150.8,-75.89"/>
<text text-anchor="middle" x="136.5" y="-87.8" font-family="Times-Roman" font-size="14.00">Ff = idFa</text>
</g>
</g>
</svg>
