<?xml version="1.0" encoding="UTF-8" standalone="no"?>
<!DOCTYPE svg PUBLIC "-//W3C//DTD SVG 1.1//EN"
 "http://www.w3.org/Graphics/SVG/1.1/DTD/svg11.dtd">
<!-- Generated by graphviz version 2.43.0 (0)
 -->
<!-- Title: %3 Pages: 1 -->
<svg width="339pt" height="131pt"
 viewBox="0.00 0.00 338.50 131.00" xmlns="http://www.w3.org/2000/svg" xmlns:xlink="http://www.w3.org/1999/xlink">
<g id="graph0" class="graph" transform="scale(1 1) rotate(0) translate(4 127)">
<title>%3</title>
<polygon fill="white" stroke="transparent" points="-4,4 -4,-127 334.5,-127 334.5,4 -4,4"/>
<!-- WaL1 -->
<g id="node1" class="node">
<title>WaL1</title>
<text text-anchor="middle" x="39.5" y="-101.3" font-family="Times-Roman" font-size="14.00">Wa</text>
</g>
<!-- WaR1 -->
<g id="node2" class="node">
<title>WaR1</title>
<text text-anchor="middle" x="126.5" y="-14.3" font-family="Times-Roman" font-size="14.00">Wa</text>
</g>
<!-- WaL1&#45;&gt;WaR1 -->
<g id="edge3" class="edge">
<title>WaL1&#45;&gt;WaR1</title>
<path fill="none" stroke="black" d="M56.41,-86.08C71.5,-71.34 93.14,-50.2 108.22,-35.46"/>
<path fill="none" stroke="black" d="M57.8,-87.51C72.9,-72.77 94.53,-51.63 109.62,-36.89"/>
</g>
<!-- WWa1 -->
<g id="node3" class="node">
<title>WWa1</title>
<text text-anchor="middle" x="133.5" y="-101.3" font-family="Times-Roman" font-size="14.00">W(Wa)</text>
</g>
<!-- WaL1&#45;&gt;WWa1 -->
<g id="edge1" class="edge">
<title>WaL1&#45;&gt;WWa1</title>
<path fill="none" stroke="black" d="M66.69,-105C74.72,-105 83.69,-105 92.39,-105"/>
<polygon fill="black" stroke="black" points="92.4,-108.5 102.4,-105 92.4,-101.5 92.4,-108.5"/>
<text text-anchor="middle" x="84.5" y="-111.8" font-family="Times-Roman" font-size="14.00">δa</text>
</g>
<!-- dummy1 -->
<!-- WaL1&#45;&gt;dummy1 -->
<!-- WWa1&#45;&gt;WaR1 -->
<g id="edge2" class="edge">
<title>WWa1&#45;&gt;WaR1</title>
<path fill="none" stroke="black" d="M132.08,-86.8C131.13,-75.16 129.84,-59.55 128.74,-46.24"/>
<polygon fill="black" stroke="black" points="132.22,-45.85 127.91,-36.18 125.25,-46.43 132.22,-45.85"/>
<text text-anchor="middle" x="145.5" y="-57.8" font-family="Times-Roman" font-size="14.00">Wεa</text>
</g>
<!-- aL2 -->
<g id="node5" class="node">
<title>aL2</title>
<text text-anchor="middle" x="213.5" y="-101.3" font-family="Times-Roman" font-size="14.00">a</text>
</g>
<!-- aR2 -->
<g id="node6" class="node">
<title>aR2</title>
<text text-anchor="middle" x="300.5" y="-14.3" font-family="Times-Roman" font-size="14.00">a</text>
</g>
<!-- aL2&#45;&gt;aR2 -->
<g id="edge7" class="edge">
<title>aL2&#45;&gt;aR2</title>
<path fill="none" stroke="black" d="M230.41,-86.08C245.5,-71.34 267.14,-50.2 282.22,-35.46"/>
<path fill="none" stroke="black" d="M231.8,-87.51C246.9,-72.77 268.53,-51.63 283.62,-36.89"/>
</g>
<!-- Wa2 -->
<g id="node7" class="node">
<title>Wa2</title>
<text text-anchor="middle" x="303.5" y="-101.3" font-family="Times-Roman" font-size="14.00">Wa</text>
</g>
<!-- aL2&#45;&gt;Wa2 -->
<g id="edge5" class="edge">
<title>aL2&#45;&gt;Wa2</title>
<path fill="none" stroke="black" d="M240.5,-105C248.53,-105 257.47,-105 266.03,-105"/>
<polygon fill="black" stroke="black" points="266.21,-108.5 276.21,-105 266.2,-101.5 266.21,-108.5"/>
<text text-anchor="middle" x="258.5" y="-111.8" font-family="Times-Roman" font-size="14.00">f</text>
</g>
<!-- dummy2 -->
<!-- aL2&#45;&gt;dummy2 -->
<!-- Wa2&#45;&gt;aR2 -->
<g id="edge6" class="edge">
<title>Wa2&#45;&gt;aR2</title>
<path fill="none" stroke="black" d="M302.89,-86.8C302.48,-75.16 301.93,-59.55 301.46,-46.24"/>
<polygon fill="black" stroke="black" points="304.96,-46.05 301.11,-36.18 297.96,-46.29 304.96,-46.05"/>
<text text-anchor="middle" x="309.5" y="-57.8" font-family="Times-Roman" font-size="14.00">εa</text>
</g>
</g>
</svg>
